<svg fill="none" height="88" viewBox="0 0 88 88" width="88" xmlns="http://www.w3.org/2000/svg" xmlns:xlink="http://www.w3.org/1999/xlink"><linearGradient id="a" gradientUnits="userSpaceOnUse" x1="8.35953" x2="70.7374" y1="75.4267" y2="31.5779"><stop offset="0" stop-color="#ff4b5c"/><stop offset="1" stop-color="#ff884b"/></linearGradient><clipPath id="b"><path d="m0 0h88v88h-88z"/></clipPath><g clip-path="url(#b)"><path d="m44.0081 68.7484c-1.8984 0-3.438-1.5388-3.438-3.4372s1.5379-3.4372 3.4363-3.4372h.0017c1.8983 0 3.4371 1.5388 3.4371 3.4372.0002 1.8984-1.5388 3.4372-3.4371 3.4372zm3.4356-15.4674v-25.2635c0-1.8984-1.5388-3.4372-3.4372-3.4372-1.8983 0-3.4371 1.5388-3.4371 3.4372v25.2635c0 1.8983 1.5388 3.4371 3.4371 3.4371 1.8984 0 3.4372-1.5388 3.4372-3.4371zm38.0762 22.8047c2.667-3.9358 3.2194-8.8897 1.4787-13.2517-.7039-1.7631-2.7035-2.622-4.4666-1.9182-1.7631.7039-2.6219 2.7035-1.9181 4.4666.8948 2.2417.6014 4.8013-.7849 6.8473-1.3871 2.047-3.6079 3.2211-6.0928 3.2211h-59.4593c-2.7106 0-5.11775-1.4144-6.4393-3.7838-1.32361-2.3735-1.26139-5.1704.16638-7.4823l29.72962-48.1342c1.3537-2.1917 3.6986-3.5002 6.2729-3.5002 2.5744 0 4.9191 1.3085 6.273 3.5002l21.9873 35.5995c.9976 1.6151 3.1157 2.1162 4.7305 1.1181 1.615-.9974 2.1158-3.1154 1.1181-4.7305l-21.9875-35.5996c-2.6153-4.23428-7.1466-6.76222-12.1215-6.76222-4.9748 0-9.5063 2.52812-12.1215 6.76222l-29.72967 48.1344c-2.756188 4.4629-2.876157 9.8622-.32123 14.4432 2.55286 4.5771 7.20433 7.3095 12.4427 7.3095h59.4593c4.8018.0002 9.097-2.2742 11.7839-6.2394z" fill="url(#a)"/></g></svg>